<svg width="161" height="60" viewBox="0 0 161 60" fill="none" xmlns="http://www.w3.org/2000/svg">
<path d="M82.1016 10.0723L89.2187 13.6881V35.8424H82.1016V10.0723Z" fill="#FEAA0A"/>
<path d="M82.1016 10.0723L89.2187 13.6881V35.8424H82.1016V10.0723Z" fill="url(#paint0_linear)"/>
<path d="M91.3813 22.958L98.4984 26.5739V35.8431H91.3813V22.958Z" fill="white"/>
<path d="M70.0896 22.958L62.9688 26.5739V35.8431H70.0896V22.958Z" fill="white"/>
<path d="M61.4691 48.7652L63.8347 39.9792H67.0324L63.0353 52.0475H59.9029L55.9385 39.9792H59.1117L61.4691 48.7652Z" fill="white"/>
<path d="M77.8245 52.0475H74.9776L70.7684 44.538V52.0475H67.9052V39.9792H70.7684L74.9694 47.4888V39.9792H77.8245V52.0475Z" fill="white"/>
<path d="M82.6862 52.0475H79.8312V39.9792H82.6862V52.0475Z" fill="white"/>
<path d="M90.8027 48.8398C90.8027 48.4143 90.6531 48.0828 90.354 47.8452C90.0604 47.6076 89.541 47.3617 88.796 47.1075C88.051 46.8533 87.4419 46.6074 86.9688 46.3698C85.4298 45.6017 84.6603 44.5463 84.6603 43.2035C84.6603 42.5349 84.8506 41.9464 85.2313 41.4381C85.6174 40.9242 86.1612 40.5263 86.8627 40.2445C87.5643 39.9571 88.3528 39.8135 89.2283 39.8135C90.0821 39.8135 90.8462 39.9682 91.5205 40.2776C92.2003 40.5871 92.7278 41.0291 93.103 41.6038C93.4783 42.173 93.6659 42.825 93.6659 43.5599H90.8109C90.8109 43.0682 90.6613 42.6869 90.3622 42.4161C90.0685 42.1453 89.6688 42.01 89.1631 42.01C88.6519 42.01 88.2467 42.126 87.9476 42.3581C87.654 42.5846 87.5072 42.8747 87.5072 43.2284C87.5072 43.5378 87.6703 43.8197 87.9966 44.0738C88.3229 44.3225 88.8966 44.5822 89.7178 44.853C90.5389 45.1182 91.2133 45.4055 91.7408 45.715C93.0242 46.4665 93.6659 47.5026 93.6659 48.8232C93.6659 49.8787 93.2743 50.7075 92.4913 51.3098C91.7082 51.9121 90.6341 52.2133 89.2691 52.2133C88.3066 52.2133 87.4337 52.0392 86.6506 51.6911C85.873 51.3375 85.2857 50.8567 84.8887 50.2489C84.4971 49.6355 84.3013 48.931 84.3013 48.1353H87.1727C87.1727 48.7818 87.3359 49.2598 87.6621 49.5692C87.9939 49.8731 88.5295 50.0251 89.2691 50.0251C89.7422 50.0251 90.1148 49.9229 90.3867 49.7184C90.664 49.5084 90.8027 49.2156 90.8027 48.8398Z" fill="white"/>
<path d="M105.062 52.0475H102.215V47.008H97.9974V52.0475H95.1342V39.9792H97.9974V44.7701H102.215V39.9792H105.062V52.0475Z" fill="white"/>
<path d="M79.6543 10.0723L72.5372 13.6881V35.8424H79.6543V10.0723Z" fill="#FEAA0A"/>
<path d="M79.6543 10.0723L72.5372 13.6881V35.8424H79.6543V10.0723Z" fill="url(#paint1_linear)"/>
<defs>
<linearGradient id="paint0_linear" x1="79.6701" y1="35.8424" x2="89.2187" y2="13.5704" gradientUnits="userSpaceOnUse">
<stop stop-color="#FEAA0A"/>
<stop offset="0.1875" stop-color="#FEAA0A"/>
<stop offset="0.682986" stop-color="#FFF4D7" stop-opacity="0.88"/>
<stop offset="0.966657" stop-color="#FEAA0A"/>
</linearGradient>
<linearGradient id="paint1_linear" x1="82.0858" y1="35.8424" x2="72.5372" y2="13.5704" gradientUnits="userSpaceOnUse">
<stop stop-color="#FEAA0A"/>
<stop offset="0.1875" stop-color="#FEAA0A"/>
<stop offset="0.682986" stop-color="#FFF4D7" stop-opacity="0.88"/>
<stop offset="0.966657" stop-color="#FEAA0A"/>
</linearGradient>
</defs>
</svg>
